<svg width="1200" height="448" viewBox="0 0 1200 448" fill="none" xmlns="http://www.w3.org/2000/svg">
<path d="M935.06 397.549L935.318 397.023L965.709 335.001L966.018 334.369L966.717 334.447L972.299 335.067L973.245 335.172L973.187 336.122C971.971 355.883 982.154 374.982 998.885 389.181C1015.61 403.374 1038.8 412.589 1063.36 412.589C1112.54 412.589 1154.78 380.063 1154.78 325.517C1154.78 299.044 1147.09 275.159 1127.74 257.646C1108.37 240.115 1077.16 228.829 1029.85 227.901C1029.85 227.901 1029.85 227.901 1029.85 227.901M935.06 397.549L1029.87 226.901L1029.85 227.901M935.06 397.549L935.392 398.031C954.855 426.283 996.767 446.841 1047.86 446.841C1149.47 446.841 1212.6 378.828 1212.6 296.367C1212.6 264.195 1201.66 232.591 1176.07 208.726C1150.49 184.867 1110.38 168.845 1052.22 167.6C1052.22 167.6 1052.22 167.6 1052.22 167.6L1004.44 166.391L1025.71 71.6046H1192.37H1192.99L1193.26 71.0483L1224.9 7.16511L1225.24 6.46821L1224.65 5.96213L1220.31 2.24075L1219.64 1.6708L1218.99 2.25476C1213.19 7.44969 1208.37 10.2964 1201.97 11.8753C1195.52 13.4698 1187.42 13.7843 1175 13.7843H1037.93H1003.2H1002.39L1002.22 14.5799L958.185 225.457L957.933 226.661H959.164H964.737H964.746M935.06 397.549L964.746 226.661M1029.85 227.901L964.746 226.661M1029.85 227.901L964.746 226.661" fill="url(#paint0_linear_8_1367)" fill-opacity="0.7" stroke="url(#paint1_linear_8_1367)" stroke-width="2"/>
<path d="M643.327 104.303L643 105.024L643.626 105.508L657.271 116.052L658.199 116.769L658.761 115.738C685.353 66.8816 717.338 43.694 750.296 43.694C770.881 43.694 788.571 49.681 801.124 62.9946C813.685 76.3162 821.242 97.1217 821.242 127.045C821.242 157.736 802.791 200.47 768.688 252.089C734.619 303.658 685.043 363.928 623.042 429.649L622.77 429.938V430.335V436.537V437.537H623.77H890.467H891.202L891.421 436.836L919.951 345.663L920.186 344.911L919.512 344.507L913.309 340.785L912.397 340.238L911.907 341.182C903.586 357.208 895.506 366.443 883.394 371.817C871.2 377.228 854.804 378.786 829.672 379.097L719.213 380.311C771.501 327.023 815.281 278.55 846.087 234.608C877.209 190.213 895.188 150.308 895.188 114.64C895.188 81.5059 882.834 53.9419 861.758 34.6684C840.691 15.4024 810.977 4.48047 776.345 4.48047C720.637 4.48047 670.724 43.9037 643.327 104.303Z" fill="url(#paint2_linear_8_1367)" fill-opacity="0.7" stroke="url(#paint3_linear_8_1367)" stroke-width="2"/>
<path d="M368.406 225.008L368.405 225.002C366.237 167.705 372.749 121.354 386.313 89.3688C399.875 57.3908 420.376 39.9726 446.175 39.9726C473.891 39.9726 497.024 57.4616 513.824 89.4434C530.63 121.435 541.003 167.786 543.171 225.075C545.029 282.684 538.518 329.35 525.106 361.571C511.693 393.791 491.498 411.348 466.022 411.348C437.993 411.348 414.551 393.702 397.597 361.489C380.637 329.266 370.264 282.606 368.406 225.008ZM299.422 225.04C299.422 293.705 314.489 349.13 341.548 387.419C368.632 425.742 407.696 446.84 455.478 446.84C503.26 446.84 542.325 425.742 569.408 387.419C596.468 349.13 611.535 293.705 611.535 225.04C611.535 156.685 596.467 101.569 569.407 63.5123C542.322 25.4212 503.257 4.48047 455.478 4.48047C407.699 4.48047 368.635 25.4212 341.55 63.5123C314.489 101.569 299.422 156.685 299.422 225.04Z" fill="url(#paint4_linear_8_1367)" fill-opacity="0.7" stroke="url(#paint5_linear_8_1367)" stroke-width="2"/>
<path d="M-1.44325 104.303L-1.77011 105.024L-1.14401 105.508L12.5009 116.052L13.4296 116.769L13.9907 115.738C40.5837 66.8816 72.5679 43.694 105.526 43.694C126.111 43.694 143.802 49.681 156.355 62.9946C168.915 76.3162 176.472 97.1217 176.472 127.045C176.472 157.736 158.021 200.47 123.919 252.089C89.8494 303.658 40.2731 363.928 -21.7274 429.649L-22 429.938V430.335V436.537V437.537H-21H245.697H246.432L246.651 436.836L275.182 345.663L275.417 344.911L274.742 344.507L268.539 340.785L267.628 340.238L267.138 341.182C258.816 357.208 250.736 366.443 238.624 371.817C226.43 377.228 210.034 378.786 184.902 379.097L74.4434 380.311C126.731 327.023 170.511 278.55 201.317 234.608C232.439 190.213 250.418 150.308 250.418 114.64C250.418 81.5059 238.064 53.9419 216.989 34.6684C195.921 15.4024 166.207 4.48047 131.575 4.48047C75.8667 4.48047 25.9546 43.9037 -1.44325 104.303Z" fill="url(#paint6_linear_8_1367)" fill-opacity="0.7" stroke="url(#paint7_linear_8_1367)" stroke-width="2"/>
<defs>
<linearGradient id="paint0_linear_8_1367" x1="1080.11" y1="3" x2="1080.11" y2="445.841" gradientUnits="userSpaceOnUse">
<stop stop-color="white" stop-opacity="0.9"/>
<stop offset="1" stop-color="white" stop-opacity="0"/>
</linearGradient>
<linearGradient id="paint1_linear_8_1367" x1="1080.11" y1="3" x2="1080.11" y2="624.046" gradientUnits="userSpaceOnUse">
<stop stop-color="white"/>
<stop offset="1" stop-color="white" stop-opacity="0"/>
</linearGradient>
<linearGradient id="paint2_linear_8_1367" x1="771.383" y1="5.48047" x2="771.383" y2="436.537" gradientUnits="userSpaceOnUse">
<stop stop-color="white" stop-opacity="0.9"/>
<stop offset="1" stop-color="white" stop-opacity="0"/>
</linearGradient>
<linearGradient id="paint3_linear_8_1367" x1="771.383" y1="5.48047" x2="771.383" y2="610" gradientUnits="userSpaceOnUse">
<stop stop-color="white"/>
<stop offset="1" stop-color="white" stop-opacity="0"/>
</linearGradient>
<linearGradient id="paint4_linear_8_1367" x1="455.478" y1="5.48047" x2="455.478" y2="445.84" gradientUnits="userSpaceOnUse">
<stop stop-color="white" stop-opacity="0.9"/>
<stop offset="1" stop-color="white" stop-opacity="0"/>
</linearGradient>
<linearGradient id="paint5_linear_8_1367" x1="455.478" y1="5.48047" x2="455.478" y2="623.047" gradientUnits="userSpaceOnUse">
<stop stop-color="white"/>
<stop offset="1" stop-color="white" stop-opacity="0"/>
</linearGradient>
<linearGradient id="paint6_linear_8_1367" x1="126.614" y1="5.48047" x2="126.614" y2="436.537" gradientUnits="userSpaceOnUse">
<stop stop-color="white" stop-opacity="0.9"/>
<stop offset="1" stop-color="white" stop-opacity="0"/>
</linearGradient>
<linearGradient id="paint7_linear_8_1367" x1="126.614" y1="5.48047" x2="126.614" y2="610" gradientUnits="userSpaceOnUse">
<stop stop-color="white"/>
<stop offset="1" stop-color="white" stop-opacity="0"/>
</linearGradient>
</defs>
</svg>
