<svg width="661" height="47" viewBox="0 0 661 47" fill="none" xmlns="http://www.w3.org/2000/svg">
<g clip-path="url(#clip0_849_1733)">
<path d="M0 45.04V1.04004H31.7747C40.2354 1.04004 46.4399 5.44004 46.4399 12.6686C46.4399 17.6343 43.2437 20.9658 39.922 22.3486C44.0584 23.48 47.6934 27.44 47.6934 32.9715C47.6934 40.4515 41.3635 45.04 32.9028 45.04H0ZM8.89942 18.8286H30.3959C34.971 18.8286 37.3525 17.0058 37.3525 13.8C37.3525 10.6572 34.971 8.83432 30.3959 8.83432H8.89942V18.8286ZM8.89942 37.2458H31.0226C35.911 37.2458 38.6059 35.6743 38.6059 31.9029C38.6059 28.5086 35.911 26.6229 31.0226 26.6229H8.89942V37.2458Z" fill="white"/>
<path d="M50.5135 45.04L74.8929 1.04004H83.7923L59.4129 45.04H50.5135Z" fill="white"/>
<path d="M118.625 45.04L113.123 34.7315H85.3592L79.8315 45.04H69.992L93.8074 1.04004H104.976L128.791 45.04H118.625ZM89.483 26.9372H108.974L99.2598 8.5829L89.483 26.9372Z" fill="white"/>
<path d="M135.798 45.04V8.83432H116.495V1.04004H164V8.83432H144.697V45.04H135.798Z" fill="white"/>
</g>
<path d="M660.938 45.4397H616.01V0.639648H625.098V37.5037H660.938V45.4397Z" fill="white"/>
<path d="M609.203 45.4397H564.275V0.639648H573.363V37.5037H609.203V45.4397Z" fill="white"/>
<path d="M559.053 45.4397H548.685L543.053 34.9436H514.701L509.069 45.4397H499.021L523.341 0.639648H534.733L559.053 45.4397ZM528.909 8.31965L518.925 27.0077H538.829L528.909 8.31965Z" fill="white"/>
<path d="M472.363 46.08C453.995 46.08 442.987 36.352 442.987 23.04C442.987 9.728 453.995 0 472.363 0C490.731 0 497.131 9.536 498.155 15.36H487.915C487.083 12.096 482.539 7.936 473.003 7.936H471.723C459.691 7.936 452.203 14.336 452.203 23.04C452.203 31.744 459.691 38.144 471.723 38.144H473.003C482.539 38.144 486.891 33.92 487.915 30.72H498.155C497.131 36.544 490.731 46.08 472.363 46.08Z" fill="white"/>
<path d="M407.103 34.8157V0.639648H416.191V45.4397H404.799L375.423 11.2636V45.4397H366.335V0.639648H377.727L407.103 34.8157Z" fill="white"/>
<path d="M319.375 26.3677V37.5037H357.711V45.4397H310.287V0.639648H357.071V8.57565H319.375V18.4316H353.231V26.3677H319.375Z" fill="white"/>
<path d="M264.703 45.4397H255.615V0.639648H285.631C296.063 0.639648 302.783 6.46365 302.783 14.9116C302.783 23.4876 296.319 29.1197 285.823 29.1197H264.703V45.4397ZM264.703 8.57565V21.1837H284.607C290.623 21.1837 293.567 18.8797 293.567 14.9116C293.567 10.9436 290.623 8.57565 284.607 8.57565H264.703Z" fill="white"/>
<path d="M217.08 46.08C200.248 46.08 187 37.888 187 23.04C187 8.192 200.248 0 217.08 0C233.848 0 247.096 8.192 247.096 23.04C247.096 37.888 233.848 46.08 217.08 46.08ZM216.44 38.144H217.72C228.664 38.144 237.88 32.96 237.88 23.04C237.88 13.12 228.664 7.936 217.72 7.936H216.44C205.496 7.936 196.216 13.12 196.216 23.04C196.216 32.96 205.496 38.144 216.44 38.144Z" fill="white"/>
<defs>
<clipPath id="clip0_849_1733">
<rect width="164" height="44" fill="white" transform="translate(0 1.04004)"/>
</clipPath>
</defs>
</svg>
