<svg width="13" height="10" viewBox="0 0 13 10" fill="none" xmlns="http://www.w3.org/2000/svg">
<g opacity="0.2" clip-path="url(#clip0_187_86)">
<path d="M12.3199 1.81601C11.3439 1.89601 10.5919 2.21601 10.0639 2.77601C9.55193 3.33601 9.25593 4.00001 9.17593 4.76801C9.31993 4.72001 9.46393 4.68801 9.60793 4.67201C9.76793 4.64001 9.91993 4.62401 10.0639 4.62401C10.7839 4.62401 11.3519 4.87201 11.7679 5.36801C12.1839 5.86401 12.3919 6.46401 12.3919 7.16801C12.3919 7.95201 12.1599 8.59201 11.6959 9.08801C11.2319 9.58401 10.5919 9.83201 9.77593 9.83201C8.99193 9.83201 8.34393 9.55201 7.83193 8.99201C7.31993 8.43201 7.06393 7.60001 7.06393 6.49601C7.06393 5.02401 7.28793 3.84001 7.73593 2.94401C8.18393 2.03201 8.80793 1.36001 9.60793 0.928007C10.4079 0.480007 11.3119 0.240007 12.3199 0.208008V1.81601ZM5.95993 1.81601C4.96793 1.89601 4.20793 2.21601 3.67993 2.77601C3.16793 3.33601 2.87193 4.00001 2.79193 4.76801C2.93593 4.72001 3.07993 4.68801 3.22393 4.67201C3.38393 4.64001 3.53593 4.62401 3.67993 4.62401C4.39993 4.62401 4.96793 4.87201 5.38393 5.36801C5.79993 5.86401 6.00793 6.46401 6.00793 7.16801C6.00793 7.95201 5.77593 8.59201 5.31193 9.08801C4.84793 9.58401 4.20793 9.83201 3.39193 9.83201C2.60793 9.83201 1.95993 9.55201 1.44793 8.99201C0.935932 8.43201 0.679932 7.60001 0.679932 6.49601C0.679932 5.02401 0.903932 3.84001 1.35193 2.94401C1.79993 2.03201 2.42393 1.36001 3.22393 0.928007C4.02393 0.480007 4.93593 0.240007 5.95993 0.208008V1.81601Z" fill="black"/>
</g>
<defs>
<clipPath id="clip0_187_86">
<rect width="13" height="10" fill="white"/>
</clipPath>
</defs>
</svg>
