<svg width="35" height="35" viewBox="0 0 35 35" fill="none" xmlns="http://www.w3.org/2000/svg">
<path d="M13.5157 12.2098C13.5156 12.5924 13.3718 12.9592 13.1162 13.2296C12.8606 13.5 12.514 13.6518 12.1527 13.6516C11.7914 13.6514 11.4449 13.4993 11.1896 13.2286C10.9342 12.9579 10.7908 12.591 10.791 12.2084C10.7912 11.8258 10.9349 11.459 11.1905 11.1886C11.4461 10.9182 11.7927 10.7664 12.1541 10.7666C12.5154 10.7668 12.8618 10.919 13.1172 11.1896C13.3726 11.4603 13.5159 11.8273 13.5157 12.2098ZM13.5566 14.7198H10.8319V23.7499H13.5566V14.7198ZM17.8617 14.7198H15.1506V23.7499H17.8344V19.0113C17.8344 16.3715 21.0836 16.1262 21.0836 19.0113V23.7499H23.7743V18.0303C23.7743 13.5802 18.9652 13.7461 17.8344 15.9315L17.8617 14.7198Z" fill="white"/>
</svg>
