<svg width="36" height="35" viewBox="0 0 36 35" fill="none" xmlns="http://www.w3.org/2000/svg">
<path d="M16.4722 18.4229L20.3987 16.2614L16.4722 14.0998V18.4229ZM25.2178 12.7813C25.3162 13.1199 25.3843 13.5739 25.4297 14.1503C25.4826 14.7267 25.5053 15.2238 25.5053 15.6561L25.5507 16.2614C25.5507 17.8393 25.4297 18.9993 25.2178 19.7415C25.0287 20.3899 24.5899 20.8078 23.909 20.9879C23.5535 21.0816 22.9028 21.1465 21.9042 21.1897C20.9207 21.2401 20.0204 21.2617 19.1882 21.2617L17.9853 21.305C14.8154 21.305 12.8409 21.1897 12.0616 20.9879C11.3807 20.8078 10.9419 20.3899 10.7528 19.7415C10.6544 19.4028 10.5864 18.9489 10.541 18.3725C10.488 17.7961 10.4653 17.2989 10.4653 16.8666L10.4199 16.2614C10.4199 14.6834 10.541 13.5234 10.7528 12.7813C10.9419 12.1328 11.3807 11.7149 12.0616 11.5348C12.4172 11.4411 13.0678 11.3763 14.0664 11.3331C15.0499 11.2826 15.9502 11.261 16.7824 11.261L17.9853 11.2178C21.1552 11.2178 23.1298 11.3331 23.909 11.5348C24.5899 11.7149 25.0287 12.1328 25.2178 12.7813Z" fill="white"/>
</svg>
