<svg width="35" height="35" viewBox="0 0 35 35" fill="none" xmlns="http://www.w3.org/2000/svg">
<path d="M17.4135 10.7666C15.6518 10.7666 15.4303 10.7747 14.7381 10.8056C14.046 10.838 13.5745 10.9467 13.1615 11.1074C12.728 11.27 12.3355 11.5256 12.0117 11.8564C11.6809 12.1803 11.4252 12.5728 11.2627 13.0062C11.102 13.4184 10.9925 13.8907 10.9608 14.5804C10.93 15.2742 10.9219 15.4949 10.9219 17.2591C10.9219 19.0215 10.93 19.2422 10.9608 19.9344C10.9933 20.6258 11.102 21.0972 11.2627 21.5103C11.429 21.9371 11.6506 22.299 12.0117 22.6601C12.3719 23.0212 12.7339 23.2435 13.1607 23.4091C13.5745 23.5697 14.0452 23.6792 14.7365 23.7109C15.4295 23.7418 15.6502 23.7499 17.4135 23.7499C19.1768 23.7499 19.3967 23.7418 20.0897 23.7109C20.7802 23.6785 21.2533 23.5697 21.6664 23.4091C22.0995 23.2465 22.4917 22.9908 22.8153 22.6601C23.1765 22.299 23.3979 21.9371 23.5643 21.5103C23.7242 21.0972 23.8338 20.6258 23.8662 19.9344C23.897 19.2422 23.9052 19.0215 23.9052 17.2582C23.9052 15.4949 23.897 15.2742 23.8662 14.5812C23.8338 13.8907 23.7242 13.4184 23.5643 13.0062C23.4018 12.5728 23.1462 12.1803 22.8153 11.8564C22.4915 11.5256 22.099 11.27 21.6655 11.1074C21.2517 10.9467 20.7794 10.8372 20.0889 10.8056C19.3959 10.7747 19.176 10.7666 17.4119 10.7666H17.4135ZM16.8317 11.9367H17.4143C19.1476 11.9367 19.3529 11.9424 20.037 11.974C20.6699 12.0024 21.0139 12.1087 21.2428 12.1972C21.5454 12.3149 21.7621 12.456 21.9893 12.6833C22.2165 12.9105 22.3569 13.1263 22.4746 13.4298C22.5639 13.6578 22.6694 14.0019 22.6977 14.6348C22.7294 15.3189 22.7359 15.5242 22.7359 17.2566C22.7359 18.9891 22.7294 19.1952 22.6977 19.8792C22.6694 20.5122 22.563 20.8554 22.4746 21.0843C22.3698 21.3657 22.2037 21.6204 21.9885 21.83C21.7613 22.0572 21.5454 22.1975 21.242 22.3152C21.0148 22.4045 20.6707 22.51 20.037 22.5392C19.3529 22.57 19.1476 22.5773 17.4143 22.5773C15.6811 22.5773 15.475 22.57 14.7909 22.5392C14.158 22.51 13.8147 22.4045 13.5859 22.3152C13.3042 22.2107 13.0492 22.045 12.8393 21.83C12.6237 21.6203 12.4574 21.3653 12.3525 21.0834C12.264 20.8554 12.1577 20.5114 12.1293 19.8784C12.0985 19.1944 12.092 18.9891 12.092 17.255C12.092 15.5209 12.0985 15.3172 12.1293 14.6332C12.1585 14.0002 12.264 13.6562 12.3533 13.4274C12.4709 13.1247 12.6121 12.908 12.8393 12.6808C13.0666 12.4536 13.2824 12.3132 13.5859 12.1956C13.8147 12.1063 14.158 12.0008 14.7909 11.9716C15.3897 11.944 15.6218 11.9359 16.8317 11.9351V11.9367ZM20.8792 13.0143C20.7769 13.0143 20.6756 13.0345 20.5811 13.0736C20.4866 13.1128 20.4007 13.1702 20.3284 13.2425C20.2561 13.3148 20.1987 13.4007 20.1595 13.4952C20.1204 13.5897 20.1002 13.691 20.1002 13.7933C20.1002 13.8956 20.1204 13.9969 20.1595 14.0914C20.1987 14.186 20.2561 14.2718 20.3284 14.3442C20.4007 14.4165 20.4866 14.4739 20.5811 14.513C20.6756 14.5522 20.7769 14.5723 20.8792 14.5723C21.0859 14.5723 21.284 14.4903 21.4301 14.3442C21.5762 14.1981 21.6582 13.9999 21.6582 13.7933C21.6582 13.5867 21.5762 13.3886 21.4301 13.2425C21.284 13.0964 21.0859 13.0143 20.8792 13.0143ZM17.4143 13.9248C16.9721 13.9179 16.533 13.999 16.1225 14.1635C15.7119 14.3279 15.3382 14.5724 15.0231 14.8826C14.708 15.1929 14.4577 15.5628 14.2869 15.9707C14.116 16.3786 14.0281 16.8164 14.0281 17.2586C14.0281 17.7009 14.116 18.1387 14.2869 18.5466C14.4577 18.9545 14.708 19.3244 15.0231 19.6347C15.3382 19.9449 15.7119 20.1894 16.1225 20.3538C16.533 20.5183 16.9721 20.5994 17.4143 20.5925C18.2895 20.5789 19.1242 20.2216 19.7383 19.5979C20.3524 18.9741 20.6966 18.1339 20.6966 17.2586C20.6966 16.3833 20.3524 15.5432 19.7383 14.9194C19.1242 14.2957 18.2895 13.9384 17.4143 13.9248ZM17.4143 15.0941C17.6985 15.0941 17.9799 15.1501 18.2425 15.2588C18.5051 15.3676 18.7437 15.527 18.9446 15.728C19.1456 15.9289 19.305 16.1675 19.4137 16.4301C19.5225 16.6926 19.5785 16.974 19.5785 17.2582C19.5785 17.5424 19.5225 17.8239 19.4137 18.0864C19.305 18.349 19.1456 18.5876 18.9446 18.7885C18.7437 18.9895 18.5051 19.1489 18.2425 19.2577C17.9799 19.3664 17.6985 19.4224 17.4143 19.4224C16.8404 19.4224 16.2899 19.1944 15.884 18.7885C15.4782 18.3827 15.2502 17.8322 15.2502 17.2582C15.2502 16.6843 15.4782 16.1338 15.884 15.728C16.2899 15.3221 16.8404 15.0941 17.4143 15.0941Z" fill="white"/>
</svg>
