<svg width="666" height="86" viewBox="0 0 666 86" fill="none" xmlns="http://www.w3.org/2000/svg">
<g clip-path="url(#clip0_29_59)">
<path d="M0 60V16H31.7747C40.2354 16 46.4399 20.4 46.4399 27.6286C46.4399 32.5943 43.2437 35.9257 39.922 37.3086C44.0584 38.44 47.6934 42.4 47.6934 47.9314C47.6934 55.4114 41.3635 60 32.9028 60H0ZM8.89942 33.7886H30.3959C34.971 33.7886 37.3525 31.9657 37.3525 28.76C37.3525 25.6171 34.971 23.7943 30.3959 23.7943H8.89942V33.7886ZM8.89942 52.2057H31.0226C35.911 52.2057 38.6059 50.6343 38.6059 46.8629C38.6059 43.4686 35.911 41.5829 31.0226 41.5829H8.89942V52.2057Z" fill="black"/>
<path d="M50.5137 60L74.8931 16H83.7925L59.4131 60H50.5137Z" fill="black"/>
<path d="M118.626 60L113.123 49.6914H85.3594L79.8317 60H69.9922L93.8075 16H104.976L128.791 60H118.626ZM89.4832 41.8971H108.974L99.26 23.5429L89.4832 41.8971Z" fill="black"/>
<path d="M135.798 60V23.7943H116.495V16H164V23.7943H144.697V60H135.798Z" fill="black"/>
</g>
<path d="M220.216 61.64C203.384 61.64 190.136 53.448 190.136 38.6C190.136 23.752 203.384 15.56 220.216 15.56C236.984 15.56 250.232 23.752 250.232 38.6C250.232 53.448 236.984 61.64 220.216 61.64ZM219.576 53.704H220.856C231.8 53.704 241.016 48.52 241.016 38.6C241.016 28.68 231.8 23.496 220.856 23.496H219.576C208.632 23.496 199.352 28.68 199.352 38.6C199.352 48.52 208.632 53.704 219.576 53.704ZM267.839 61H258.751V16.2H288.767C299.199 16.2 305.919 22.024 305.919 30.472C305.919 39.048 299.455 44.68 288.959 44.68H267.839V61ZM267.839 24.136V36.744H287.743C293.759 36.744 296.703 34.44 296.703 30.472C296.703 26.504 293.759 24.136 287.743 24.136H267.839ZM322.512 41.928V53.064H360.848V61H313.424V16.2H360.208V24.136H322.512V33.992H356.368V41.928H322.512ZM410.239 50.376V16.2H419.327V61H407.935L378.559 26.824V61H369.471V16.2H380.863L410.239 50.376ZM475.5 61.64C457.132 61.64 446.124 51.912 446.124 38.6C446.124 25.288 457.132 15.56 475.5 15.56C493.868 15.56 500.268 25.096 501.292 30.92H491.052C490.22 27.656 485.676 23.496 476.14 23.496H474.86C462.828 23.496 455.34 29.896 455.34 38.6C455.34 47.304 462.828 53.704 474.86 53.704H476.14C485.676 53.704 490.028 49.48 491.052 46.28H501.292C500.268 52.104 493.868 61.64 475.5 61.64ZM562.189 61H551.821L546.189 50.504H517.837L512.205 61H502.157L526.477 16.2H537.869L562.189 61ZM532.045 23.88L522.061 42.568H541.965L532.045 23.88ZM612.339 61H567.411V16.2H576.499V53.064H612.339V61ZM664.074 61H619.146V16.2H628.234V53.064H664.074V61Z" fill="black"/>
<defs>
<clipPath id="clip0_29_59">
<rect width="164" height="44" fill="white" transform="translate(0 16)"/>
</clipPath>
</defs>
</svg>
